<svg xmlns="http://www.w3.org/2000/svg" viewBox="0 0 425.2 104.89"><g id="レイヤー_2" data-name="レイヤー 2"><g id="レイヤー_1-2" data-name="レイヤー 1"><path d="M61.85,96.68c0,5.48-2.84,8.16-8.05,8.16-8.63,0-8.63-5.48-8.63-10.42h5c0,4.08.3,6.06,3.18,6.06s3-1.8,3-3.8V78.27h5.42V96.68Z"/><path d="M88,95.15c0,6.81-4.12,9.74-10.66,9.74-2.38,0-5.92-.59-8.22-3.14-1.42-1.59-2-3.69-2-6.29V78.27h5.52V95.1c0,3.61,2.1,5.19,4.62,5.19,3.72,0,5.24-1.79,5.24-4.93V78.27H88V95.15Z"/><polygon points="109.06 78.27 114.11 78.27 114.11 104.19 108.72 104.19 98.14 85.72 98.06 85.72 98.06 104.19 93.01 104.19 93.01 78.27 98.72 78.27 108.99 96.32 109.06 96.32 109.06 78.27 109.06 78.27"/><polygon points="136.76 104.19 131.34 104.19 131.34 82.86 123.5 82.86 123.5 78.27 144.6 78.27 144.6 82.86 136.76 82.86 136.76 104.19 136.76 104.19"/><path d="M154.82,84.13h.06l3.21,10.24h-6.6l3.33-10.24m-4.76,14.73h9.55l1.66,5.33h5.89L158,78.27h-6.25l-9.23,25.92h5.69l1.82-5.33Z"/><polygon points="176.44 104.19 171.01 104.19 171.01 78.27 176.44 78.27 176.44 88.82 186.33 78.27 193.33 78.27 182.76 88.89 193.94 104.19 186.97 104.19 178.96 92.82 176.44 95.43 176.44 104.19 176.44 104.19"/><path d="M206.93,84.13H207l3.21,10.24h-6.6l3.31-10.24m-4.75,14.73h9.56l1.66,5.33h5.88l-9.13-25.92H203.9l-9.24,25.92h5.71l1.81-5.33Z"/><polygon points="227.99 92.56 227.99 104.19 222.57 104.19 222.57 78.27 227.99 78.27 227.99 88.09 238.08 88.09 238.08 78.27 243.5 78.27 243.5 104.19 238.08 104.19 238.08 92.56 227.99 92.56 227.99 92.56"/><path d="M259.07,84.13h.06l3.22,10.24h-6.62l3.34-10.24m-4.78,14.73h9.57l1.66,5.33h5.89l-9.13-25.92H256l-9.25,25.92h5.7l1.81-5.33Z"/><path d="M278.74,96.22c0,1.45.75,4.18,5.48,4.18,2.56,0,5.42-.6,5.42-3.36,0-2-2-2.55-4.7-3.21l-2.78-.65c-4.18-1-8.23-1.91-8.23-7.61,0-2.88,1.55-8,10-8,7.93,0,10.06,5.2,10.1,8.37h-5.19c-.14-1.15-.58-3.9-5.31-3.9-2.05,0-4.51.76-4.51,3.11,0,2,1.66,2.45,2.74,2.71l6.32,1.56c3.53.86,6.79,2.31,6.79,7,0,7.8-8,8.5-10.23,8.5-9.45,0-11.07-5.45-11.07-8.67Z"/><polygon points="304.18 92.56 304.18 104.19 298.77 104.19 298.77 78.27 304.18 78.27 304.18 88.09 314.29 88.09 314.29 78.27 319.7 78.27 319.7 104.19 314.29 104.19 314.29 92.56 304.18 92.56 304.18 92.56"/><polygon points="329.99 104.19 324.57 104.19 324.57 78.27 329.99 78.27 329.99 104.19 329.99 104.19"/><path d="M32.2,55.21c0,10.51-6.35,15-16.41,15-3.67,0-9.12-.88-12.67-4.84C1,62.94.12,59.72,0,55.71V29.26H8.5v25.9c0,5.56,3.24,8,7.12,8,5.73,0,8.06-2.77,8.06-7.6V29.26H32.2v26Z"/><polygon points="64.72 29.26 72.5 29.26 72.5 69.16 64.17 69.16 47.87 40.7 47.76 40.7 47.76 69.16 39.98 69.16 39.98 29.26 48.76 29.26 64.61 57.04 64.72 57.04 64.72 29.26 64.72 29.26"/><path d="M88.68,36.14h8c3.57,0,9.18.94,9.18,12.74,0,6.56-2.28,13.4-9.06,13.4H88.68V36.14m-8.16,33H97.81c13.17,0,16.56-12.32,16.56-20.91,0-7.56-2.77-19-16.23-19H80.52v39.9Z"/><polygon points="150.02 36.31 128.83 36.31 128.83 44.71 148.28 44.71 148.28 51.77 128.83 51.77 128.83 62.11 150.94 62.11 150.94 69.16 120.66 69.16 120.66 29.26 150.02 29.26 150.02 36.31 150.02 36.31"/><path d="M165.91,46.82V36.14h10.41c4.89,0,5.83,3.12,5.83,5.23,0,3.94-2.12,5.45-6.45,5.45h-9.79m-8.17,22.34h8.17V53.53h8.63c6.16,0,6.5,2.13,6.5,7.57a26.06,26.06,0,0,0,.89,8.06h9.23V68.1c-1.78-.66-1.78-2.09-1.78-7.94,0-7.45-1.78-8.67-5.06-10.13,4-1.33,6.17-5.11,6.17-9.49,0-3.46-2-11.28-12.56-11.28H157.74v39.9Z"/><path d="M223.35,42.31c-.66-2.39-1.95-6.88-8.84-6.88-4,0-9.9,2.65-9.9,13.94,0,7.18,2.83,13.62,9.9,13.62,4.62,0,7.84-2.61,8.84-7.51h8.33c-1.65,8.69-7.33,14.74-17.34,14.74-10.62,0-18.24-7.17-18.24-21,0-13.95,8.06-21.08,18.36-21.08,11.95,0,16.79,8.24,17.22,14.13Z"/><path d="M244.59,49.2c0-11.17,6.34-14,10.84-14s10.84,2.78,10.84,14-6.33,13.95-10.84,13.95-10.84-2.77-10.84-13.95m-8.35,0c0,18.74,13.91,21,19.19,21s19.18-2.28,19.18-21-13.89-21-19.18-21-19.19,2.29-19.19,21Z"/><polygon points="301.65 29.26 310.32 29.26 296.75 69.16 288.81 69.16 275.34 29.26 284.31 29.26 292.86 59.5 292.97 59.5 301.65 29.26 301.65 29.26"/><polygon points="344.96 36.31 323.77 36.31 323.77 44.71 343.24 44.71 343.24 51.77 323.77 51.77 323.77 62.11 345.91 62.11 345.91 69.16 315.61 69.16 315.61 29.26 344.96 29.26 344.96 36.31 344.96 36.31"/><path d="M360.86,46.82V36.14h10.41c4.89,0,5.83,3.12,5.83,5.23,0,3.94-2.12,5.45-6.45,5.45h-9.79M352.7,69.16h8.16V53.53h8.62c6.18,0,6.51,2.13,6.51,7.57a26.38,26.38,0,0,0,.89,8.06h9.22V68.1c-1.77-.66-1.77-2.09-1.77-7.94,0-7.45-1.78-8.67-5.07-10.13,3.95-1.33,6.19-5.11,6.19-9.49,0-3.46-1.95-11.28-12.57-11.28H352.7v39.9Z"/><path d="M406.73,0A18.49,18.49,0,1,0,425.2,18.49,18.49,18.49,0,0,0,406.73,0m0,33.8A15.31,15.31,0,1,1,422,18.49a15.31,15.31,0,0,1-15.3,15.31Z"/><path d="M413.76,7.48V18.84c0,3.58-2.23,6.6-7,6.6s-6.74-3-6.74-6.28V7.48h2.35v11c0,3.8,2.33,4.85,4.45,4.85s4.61-1,4.61-4.82v-11Z"/><polygon points="413.71 29.29 399.99 29.29 399.99 27.03 413.71 27.03 413.71 29.29 413.71 29.29"/></g></g></svg>